<?xml version="1.0"?>
<!-- Generated by SVGo -->
<svg width="866" height="522"
     xmlns="http://www.w3.org/2000/svg"
     xmlns:xlink="http://www.w3.org/1999/xlink">
<defs>
<style>
@font-face {
  font-family: 'DejaVuSans';
  src: url('https://fontlibrary.org/assets/fonts/dejavu-sans/f5ec8426554a3a67ebcdd39f9c3fee83/49c0f03ec2fa354df7002bcb6331e106/DejaVuSansBook.ttf') format('truetype');
  font-weight: normal;
  font-style: normal;
}
</style>
</defs>
<line x1="58" y1="24" x2="58" y2="498" style="stroke-dasharray:8,8;stroke-width:2px;stroke:black;" />
<rect x="8" y="8" width="100" height="32" style="fill:white;stroke-width:2px;stroke:black;" />
<text x="24" y="29" style="fill:black;font-family:DejaVuSans,sans-serif;font-size:16px;" >TaskCRD</text>
<rect x="8" y="482" width="100" height="32" style="fill:white;stroke-width:2px;stroke:black;" />
<text x="24" y="503" style="fill:black;font-family:DejaVuSans,sans-serif;font-size:16px;" >TaskCRD</text>
<line x1="232" y1="24" x2="232" y2="498" style="stroke-dasharray:8,8;stroke-width:2px;stroke:black;" />
<rect x="164" y="8" width="136" height="32" style="fill:white;stroke-width:2px;stroke:black;" />
<text x="180" y="29" style="fill:black;font-family:DejaVuSans,sans-serif;font-size:16px;" >TaskOperator</text>
<rect x="164" y="482" width="136" height="32" style="fill:white;stroke-width:2px;stroke:black;" />
<text x="180" y="503" style="fill:black;font-family:DejaVuSans,sans-serif;font-size:16px;" >TaskOperator</text>
<line x1="368" y1="24" x2="368" y2="498" style="stroke-dasharray:8,8;stroke-width:2px;stroke:black;" />
<rect x="320" y="8" width="96" height="32" style="fill:white;stroke-width:2px;stroke:black;" />
<text x="336" y="29" style="fill:black;font-family:DejaVuSans,sans-serif;font-size:16px;" >CronJob</text>
<rect x="320" y="482" width="96" height="32" style="fill:white;stroke-width:2px;stroke:black;" />
<text x="336" y="503" style="fill:black;font-family:DejaVuSans,sans-serif;font-size:16px;" >CronJob</text>
<line x1="472" y1="24" x2="472" y2="498" style="stroke-dasharray:8,8;stroke-width:2px;stroke:black;" />
<rect x="443" y="8" width="58" height="32" style="fill:white;stroke-width:2px;stroke:black;" />
<text x="459" y="29" style="fill:black;font-family:DejaVuSans,sans-serif;font-size:16px;" >Job</text>
<rect x="443" y="482" width="58" height="32" style="fill:white;stroke-width:2px;stroke:black;" />
<text x="459" y="503" style="fill:black;font-family:DejaVuSans,sans-serif;font-size:16px;" >Job</text>
<line x1="644" y1="24" x2="644" y2="498" style="stroke-dasharray:8,8;stroke-width:2px;stroke:black;" />
<rect x="613" y="8" width="62" height="32" style="fill:white;stroke-width:2px;stroke:black;" />
<text x="629" y="29" style="fill:black;font-family:DejaVuSans,sans-serif;font-size:16px;" >Pod</text>
<rect x="613" y="482" width="62" height="32" style="fill:white;stroke-width:2px;stroke:black;" />
<text x="629" y="503" style="fill:black;font-family:DejaVuSans,sans-serif;font-size:16px;" >Pod</text>
<line x1="794" y1="24" x2="794" y2="498" style="stroke-dasharray:8,8;stroke-width:2px;stroke:black;" />
<rect x="730" y="8" width="128" height="32" style="fill:white;stroke-width:2px;stroke:black;" />
<text x="746" y="29" style="fill:black;font-family:DejaVuSans,sans-serif;font-size:16px;" >Prometheus</text>
<rect x="730" y="482" width="128" height="32" style="fill:white;stroke-width:2px;stroke:black;" />
<text x="746" y="503" style="fill:black;font-family:DejaVuSans,sans-serif;font-size:16px;" >Prometheus</text>
<rect x="115" y="56" width="60" height="14" style="fill:white;stroke:white;" />
<text x="115" y="68" style="font-family:DejaVuSans,sans-serif;font-size:14px;" >Watches</text>
<line x1="58" y1="74" x2="232" y2="74" style="stroke:black;stroke-width:2px;" />
<polyline points="223,69 232,74 223,79" style="fill:black;stroke-width:2px;stroke:black;" />
<rect x="248" y="90" width="104" height="14" style="fill:white;stroke:white;" />
<text x="248" y="102" style="font-family:DejaVuSans,sans-serif;font-size:14px;" >Create CronJob</text>
<line x1="232" y1="108" x2="368" y2="108" style="stroke:black;stroke-width:2px;" />
<polyline points="359,103 368,108 359,113" style="fill:black;stroke-width:2px;stroke:black;" />
<rect x="384" y="124" width="72" height="14" style="fill:white;stroke:white;" />
<text x="384" y="136" style="font-family:DejaVuSans,sans-serif;font-size:14px;" >Create Job</text>
<line x1="368" y1="142" x2="472" y2="142" style="stroke:black;stroke-width:2px;" />
<polyline points="463,137 472,142 463,147" style="fill:black;stroke-width:2px;stroke:black;" />
<rect x="270" y="158" width="60" height="14" style="fill:white;stroke:white;" />
<text x="270" y="170" style="font-family:DejaVuSans,sans-serif;font-size:14px;" >Watches</text>
<line x1="368" y1="176" x2="232" y2="176" style="stroke:black;stroke-width:2px;" />
<polyline points="241,171 232,176 241,181" style="fill:black;stroke-width:2px;stroke:black;" />
<rect x="74" y="192" width="142" height="14" style="fill:white;stroke:white;" />
<text x="74" y="204" style="font-family:DejaVuSans,sans-serif;font-size:14px;" >Updates Task Status</text>
<line x1="232" y1="210" x2="58" y2="210" style="stroke:black;stroke-width:2px;" />
<polyline points="67,205 58,210 67,215" style="fill:black;stroke-width:2px;stroke:black;" />
<rect x="515" y="226" width="86" height="14" style="fill:white;stroke:white;" />
<text x="515" y="238" style="font-family:DejaVuSans,sans-serif;font-size:14px;" >Creates Pod</text>
<line x1="472" y1="244" x2="644" y2="244" style="stroke:black;stroke-width:2px;" />
<polyline points="635,239 644,244 635,249" style="fill:black;stroke-width:2px;stroke:black;" />
<rect x="652" y="260" width="138" height="14" style="fill:white;stroke:white;" />
<text x="652" y="272" style="font-family:DejaVuSans,sans-serif;font-size:14px;" >Execute commands</text>
<polyline points="644,280 692,280 692,304 644,304" style="fill:none;stroke:black;stroke-width:2px;" />
<polyline points="653,299 644,304 653,309" style="fill:black;stroke-width:2px;stroke:black;" />
<rect x="296" y="320" width="112" height="14" style="fill:white;stroke:white;" />
<text x="296" y="332" style="font-family:DejaVuSans,sans-serif;font-size:14px;" >Fetch Job Status</text>
<line x1="472" y1="338" x2="232" y2="338" style="stroke:black;stroke-width:2px;" />
<polyline points="241,333 232,338 241,343" style="fill:black;stroke-width:2px;stroke:black;" />
<rect x="74" y="354" width="142" height="14" style="fill:white;stroke:white;" />
<text x="74" y="366" style="font-family:DejaVuSans,sans-serif;font-size:14px;" >Updates Task Status</text>
<line x1="232" y1="372" x2="58" y2="372" style="stroke:black;stroke-width:2px;" />
<polyline points="67,367 58,372 67,377" style="fill:black;stroke-width:2px;stroke:black;" />
<rect x="458" y="388" width="111" height="14" style="fill:white;stroke:white;" />
<text x="458" y="400" style="font-family:DejaVuSans,sans-serif;font-size:14px;" >Scrapes Metrics</text>
<line x1="794" y1="406" x2="232" y2="406" style="stroke:black;stroke-width:2px;" />
<polyline points="241,401 232,406 241,411" style="fill:black;stroke-width:2px;stroke:black;" />
<rect x="480" y="422" width="160" height="14" style="fill:white;stroke:white;" />
<text x="480" y="434" style="font-family:DejaVuSans,sans-serif;font-size:14px;" >Deletes Completed Job</text>
<polyline points="472,442 520,442 520,466 472,466" style="fill:none;stroke:black;stroke-width:2px;" />
<polyline points="481,461 472,466 481,471" style="fill:black;stroke-width:2px;stroke:black;" />
</svg>
